<?xml version="1.0" encoding="UTF-8" standalone="no"?>
<svg
   xmlns:dc="http://purl.org/dc/elements/1.1/"
   xmlns:cc="http://creativecommons.org/ns#"
   xmlns:rdf="http://www.w3.org/1999/02/22-rdf-syntax-ns#"
   xmlns:svg="http://www.w3.org/2000/svg"
   xmlns="http://www.w3.org/2000/svg"
   xmlns:sodipodi="http://sodipodi.sourceforge.net/DTD/sodipodi-0.dtd"
   xmlns:inkscape="http://www.inkscape.org/namespaces/inkscape"
   aria-hidden="true"
   focusable="false"
   data-prefix="fad"
   data-icon="sync"
   class="svg-inline--fa fa-sync fa-w-16"
   role="img"
   viewBox="0 0 19 19"
   version="1.1"
   id="svg8"
   sodipodi:docname="icon-enabled.svg"
   inkscape:version="0.92.3 (2405546, 2018-03-11)"
   inkscape:export-filename="/home/g105b/Code/g105b/liveclient/icon-38.png"
   inkscape:export-xdpi="7.1199999"
   inkscape:export-ydpi="7.1199999"
   width="19"
   height="19">
  <metadata
     id="metadata14">
    <rdf:RDF>
      <cc:Work
         rdf:about="">
        <dc:format>image/svg+xml</dc:format>
        <dc:type
           rdf:resource="http://purl.org/dc/dcmitype/StillImage" />
        <dc:title></dc:title>
      </cc:Work>
    </rdf:RDF>
  </metadata>
  <defs
     id="defs12" />
  <sodipodi:namedview
     pagecolor="#ffffff"
     bordercolor="#666666"
     borderopacity="1"
     objecttolerance="10"
     gridtolerance="10"
     guidetolerance="10"
     inkscape:pageopacity="0"
     inkscape:pageshadow="2"
     inkscape:window-width="2560"
     inkscape:window-height="1412"
     id="namedview10"
     showgrid="true"
     inkscape:zoom="32"
     inkscape:cx="17.938485"
     inkscape:cy="11.754749"
     inkscape:window-x="0"
     inkscape:window-y="0"
     inkscape:window-maximized="1"
     inkscape:current-layer="svg8"
     inkscape:snap-grids="false">
    <inkscape:grid
       type="xygrid"
       id="grid845" />
  </sodipodi:namedview>
  <path
     style="fill:#000000;fill-opacity:1;stroke-width:0.03830645"
     d="M 18.20964,0.78470764 16.211384,2.7829639 C 14.492382,1.0636539 12.117765,2.1e-7 9.4943494,2.1e-7 4.408321,2.1e-7 0.25575072,3.9968201 0.0062235,9.0209029 -0.0067833,9.2820747 0.20407351,9.4999978 0.46555279,9.4999978 H 1.5398579 c 0.2433643,0 0.4448562,-0.1896912 0.4586434,-0.4326298 0.2237879,-3.9477488 3.4910208,-7.0754306 7.4958481,-7.0754306 2.0747886,0 3.9515766,0.8397901 5.3098086,2.1982536 l -2.07345,2.0734875 C 12.44111,6.5532761 12.646198,7.048386 13.055736,7.048386 h 5.478932 c 0.253861,0 0.45968,-0.2058196 0.45968,-0.4596746 v -5.478933 c 0,-0.40953456 -0.495148,-0.61463054 -0.784708,-0.32507076 z"
     id="path860"
     inkscape:connector-curvature="0" />
  <path
     style="fill:#747474;fill-opacity:1;stroke-width:0.03830645"
     d="m 18.534446,9.4999978 h -1.074305 c -0.243364,0 -0.444857,0.1896959 -0.458643,0.4326345 -0.223788,3.9477487 -3.491021,7.0754307 -7.4958436,7.0754307 -2.0747929,0 -3.9515798,-0.839791 -5.3098115,-2.198253 L 6.2692926,12.736321 C 6.5588902,12.446724 6.3537991,11.951615 5.9442644,11.951615 H 0.46533135 c -0.25385966,0 -0.45967928,0.205819 -0.45967928,0.459674 v 5.478933 c 0,0.409534 0.49514765,0.61463 0.78470743,0.325033 L 2.7886158,16.217036 C 4.5076183,17.936346 6.8822724,19 9.5056544,19 14.591716,19 18.744248,15.00318 18.993776,9.9790974 19.006786,9.7179256 18.795925,9.4999978 18.534446,9.4999978 Z"
     id="path847"
     inkscape:connector-curvature="0" />
  <circle
     style="opacity:1;fill:#c20000;fill-opacity:1;stroke:#591111;stroke-width:1;stroke-miterlimit:4;stroke-dasharray:none;stroke-opacity:1"
     id="path879"
     cx="9.5"
     cy="9.5"
     r="3.136039" />
</svg>
